<svg width="48" height="48" viewBox="0 0 48 48" fill="none" xmlns="http://www.w3.org/2000/svg">
<g id="Logo">
<path id="Union" fill-rule="evenodd" clip-rule="evenodd" d="M15.4515 30.4271C16.2451 30.8473 17.1498 31.0279 18.0498 30.9457C18.9499 30.8634 19.804 30.5221 20.5027 29.9655C21.2014 29.4088 21.7128 28.6623 21.9712 27.8217C22.2297 26.9811 22.2234 26.0847 21.9532 25.2476C21.6108 24.1801 21.4888 23.0576 21.5943 21.9443C21.6997 20.8311 22.0306 19.7489 22.5679 18.76C23.1052 17.7711 23.8384 16.8947 24.7253 16.1813C25.6123 15.4678 26.6357 14.9313 27.7368 14.6025C28.5908 14.3429 29.3465 13.844 29.9089 13.1686C30.4714 12.4932 30.8154 11.6714 30.8977 10.8067C30.98 9.94195 30.7969 9.07292 30.3714 8.309C29.946 7.54502 29.2971 6.92024 28.5066 6.51329C27.7161 6.10635 26.8192 5.93535 25.9289 6.02193C25.0384 6.10845 24.1943 6.4486 23.5026 6.99964C22.8109 7.55063 22.3027 8.28786 22.0418 9.11852C21.7809 9.94918 21.779 10.8362 22.0364 11.6678C22.712 13.815 22.4835 16.1344 21.4011 18.1185C20.3185 20.1026 18.4702 21.5896 16.2605 22.2543C15.3881 22.4998 14.6118 22.9937 14.032 23.6722C13.4522 24.3507 13.0957 25.1824 13.0085 26.0597C12.9214 26.937 13.1077 27.8195 13.5432 28.5929C13.9788 29.3664 14.6436 29.9951 15.4515 30.3978V30.4271ZM43.341 35.3132C43.0203 34.8179 42.6011 34.3895 42.1078 34.0532C41.6145 33.7168 41.0571 33.4793 40.4681 33.3544C38.2148 32.8458 36.2605 31.4924 35.0322 29.5898C33.8041 27.6872 33.4019 25.3903 33.9135 23.2008C34.1102 22.3546 34.0449 21.4708 33.7257 20.6605C33.4065 19.8502 32.8477 19.1494 32.1195 18.6463C31.3912 18.1432 30.526 17.8601 29.6324 17.8326C28.739 17.8051 27.857 18.0343 27.0974 18.4916C26.3377 18.949 25.7343 19.6139 25.3627 20.4029C24.9913 21.192 24.8683 22.0699 25.0093 22.9266C25.1503 23.7832 25.5491 24.5804 26.1554 25.2178C26.7617 25.8553 27.5486 26.3047 28.4173 26.5095C29.5411 26.7555 30.6038 27.2143 31.5445 27.8596C32.4852 28.5049 33.2854 29.3241 33.8992 30.27C34.5131 31.2161 34.9285 32.2703 35.1216 33.3724C35.3148 34.4745 35.2819 35.6028 35.0249 36.6925C34.8727 37.395 34.8998 38.123 35.104 38.8129C35.3081 39.5029 35.6831 40.1339 36.1961 40.6511C36.7092 41.1683 37.3448 41.5558 38.0476 41.7799C38.7503 42.0041 39.4989 42.058 40.228 41.9371C40.9573 41.8162 41.6449 41.524 42.2311 41.0861C42.8172 40.6482 43.2841 40.0778 43.5911 39.4247C43.898 38.7715 44.0357 38.0554 43.9921 37.3389C43.9485 36.6222 43.725 35.9268 43.341 35.3132ZM25.3807 30.1114C25.9285 29.8657 26.5213 29.7286 27.1244 29.7081C27.8653 29.6898 28.5995 29.848 29.2629 30.1688C29.9262 30.4896 30.4984 30.9631 30.9295 31.5481C31.3606 32.1332 31.6374 32.8118 31.7357 33.5246C31.834 34.2375 31.7508 34.9628 31.4935 35.6372C31.236 36.3117 30.8123 36.9147 30.2592 37.3934C29.7062 37.8722 29.0407 38.2121 28.3209 38.3835C27.6012 38.5549 26.8491 38.5526 26.1304 38.3767C25.4118 38.2009 24.7486 37.8568 24.1987 37.3746C23.354 36.6136 22.3629 36.0218 21.2822 35.6331C20.2014 35.2443 19.0522 35.0664 17.9005 35.1093C16.7488 35.1522 15.6171 35.4153 14.5702 35.8833C13.5234 36.3513 12.582 37.0152 11.8 37.8368C11.2859 38.3538 10.6492 38.7408 9.94553 38.964C9.24186 39.1872 8.49253 39.2399 7.76303 39.1175C7.03354 38.995 6.34604 38.7013 5.76047 38.2616C5.17491 37.822 4.70917 37.25 4.4038 36.5956C4.09844 35.9411 3.96284 35.2241 4.00872 34.507C4.05467 33.79 4.2807 33.0947 4.66723 32.482C5.0537 31.8693 5.58882 31.3576 6.22599 30.9918C6.86311 30.6259 7.58288 30.4169 8.32238 30.383C8.92316 30.3602 9.52261 30.4535 10.0858 30.6576C10.6491 30.8616 11.165 31.1723 11.6034 31.5715C13.3004 33.0955 15.5502 33.9055 17.8608 33.8244C20.1714 33.7432 22.355 32.7777 23.934 31.1387C24.341 30.7063 24.8328 30.3571 25.3807 30.1114Z" fill="#3E334E"/>
</g>
</svg>
